# xmcd
#
# Track frame offsets:
# 150
# 14632
# 31615
# 45812
# 65513
# 80906
# 95309
# 110341
# 127519
# 145052
# 160805
# 176031
# 189562
# 205337
#
# Disc length: 2945 seconds
#
#
# Revision: 2
# Processed by: cddbd v1.5.1PL2 Copyright (c) Steve Scherf et al.
# Submitted via: FreeRIP 2.945 
#
DISCID=af0b7f0e
DTITLE=Targino Gondim - Dance forro mais eu
DYEAR=2001
DGENRE=Forró
TTITLE0=Pra se animar
TTITLE1=Verdade
TTITLE2=Carrapeta de batom
TTITLE3=Dance forro mais eu
TTITLE4=O som da vaqueijada
TTITLE5=Esperando na janela
TTITLE6=Baiao - De onde vem o baiao
TTITLE7=Qui nem brasa
TTITLE8=Coitado de eu
TTITLE9=Ainda Ontem
TTITLE10=Cidadao comum
TTITLE11=Balance eu
TTITLE12=Aniversario de sao joao
TTITLE13=E ouro em po
EXTD=
EXTT0=
EXTT1=
EXTT2=
EXTT3=
EXTT4=
EXTT5=
EXTT6=
EXTT7=
EXTT8=
EXTT9=
EXTT10=
EXTT11=
EXTT12=
EXTT13=
PLAYORDER=
